<?xml version="1.0" encoding="UTF-8"?>
<svg width="24px" height="24px" viewBox="0 0 24 24" version="1.1" xmlns="http://www.w3.org/2000/svg" xmlns:xlink="http://www.w3.org/1999/xlink">
    <title>账号</title>
    <g id="Page-1" stroke="none" stroke-width="1" fill="none" fill-rule="evenodd">
        <g id="授权登录页" transform="translate(-1273.000000, -466.000000)" fill="#999999" fill-rule="nonzero">
            <g id="Group-5" transform="translate(1179.000000, 289.000000)">
                <g id="Group-3" transform="translate(70.000000, 164.000000)">
                    <g id="账号" transform="translate(24.000000, 13.000000)">
                        <path d="M2.77831493,20.7786602 C2.77831493,21.5109715 3.37197051,22.1046271 4.10428178,22.1046271 L19.1319061,22.1046271 C19.4835743,22.1046271 19.8208392,21.9649274 20.0695062,21.7162604 C20.3181732,21.4675933 20.4578729,21.1303285 20.4578729,20.7786602 C20.4578729,17.1172237 17.4894751,14.148826 13.8280387,14.148826 L9.40814918,14.148826 C5.74671271,14.148826 2.77831493,17.1172237 2.77831493,20.7786602 L2.77831493,20.7786602 Z M1.01035912,20.7786602 C1.01035912,16.1408702 4.77035911,12.3808702 9.40814918,12.3808702 L13.8280387,12.3808702 C18.4658287,12.3808702 22.2258287,16.1408702 22.2258287,20.7786602 C22.2258287,22.4873865 20.8406324,23.8725829 19.1319061,23.8725829 L4.10428178,23.8725829 C2.39555547,23.8725829 1.01035912,22.4873865 1.01035912,20.7786602 L1.01035912,20.7786602 Z M11.6180939,10.6129144 C14.0591989,10.6129144 16.0379834,8.63412983 16.0379834,6.19302485 C16.0379834,3.75191988 14.0591989,1.77313537 11.6180939,1.77313537 C9.17698895,1.77313537 7.19820441,3.75191991 7.19820441,6.19302485 C7.19820441,8.6341298 9.17698895,10.6129144 11.6180939,10.6129144 L11.6180939,10.6129144 Z M11.6180939,12.3808702 C8.20063535,12.3808702 5.43024863,9.61048343 5.43024863,6.19302485 C5.43024863,2.77556628 8.20063535,0.00517955801 11.6180939,0.00517955801 C15.0355525,0.00517955801 17.8059392,2.77556631 17.8059392,6.19302485 C17.8059392,9.6104834 15.0355525,12.3808702 11.6180939,12.3808702 Z" id="Shape"></path>
                    </g>
                </g>
            </g>
        </g>
    </g>
</svg>