<?xml version="1.0" encoding="UTF-8"?>
<svg width="24px" height="24px" viewBox="0 0 24 24" version="1.1" xmlns="http://www.w3.org/2000/svg" xmlns:xlink="http://www.w3.org/1999/xlink">
    <title>密码</title>
    <g id="Page-1" stroke="none" stroke-width="1" fill="none" fill-rule="evenodd">
        <g id="授权登录页" transform="translate(-1273.000000, -536.000000)" fill="#999999" fill-rule="nonzero">
            <g id="Group-5" transform="translate(1179.000000, 289.000000)">
                <g id="Group-2" transform="translate(70.000000, 234.000000)">
                    <g id="密码" transform="translate(24.000000, 13.000000)">
                        <path d="M18.8175905,10.2003454 C19.8102796,10.2003454 20.6157426,11.0072615 20.6157426,11.9999753 L20.6157426,20.39625 C20.6165262,20.8736617 20.4274258,21.331789 20.0901221,21.6696481 C19.7528184,22.0075071 19.2950028,22.1973602 18.8175905,22.1973602 L5.62129112,22.1973602 C5.14413987,22.1973602 4.68655533,22.0077004 4.34929961,21.6701624 C4.01204388,21.3326244 3.82277332,20.8748814 3.82316551,20.3977303 L3.82316551,12.0014309 C3.82316551,11.0057812 4.62712171,10.2003454 5.62131579,10.2003454 L18.8175905,10.2003454 M18.8175905,8.40217105 L5.62129112,8.40217105 C3.63405272,8.40217105 2.02284854,10.0127371 2.02203125,11.9999753 L2.02203125,20.39625 C2.02203125,22.3840663 3.63347478,23.9955099 5.62129112,23.9955099 L18.8161102,23.9955099 C20.8033486,23.9955099 22.4145528,22.3849685 22.4153701,20.3977303 L22.4153701,12.0014309 C22.4153701,10.0136146 20.8039265,8.40217105 18.8161102,8.40217105 L18.8175905,8.40217105 Z M12.2194408,1.80404605 C13.3328636,1.80404605 14.4006831,2.24635322 15.1879896,3.03366435 C15.9752961,3.82097547 16.4175905,4.8887976 16.4175905,6.00222039 L16.4175905,8.40222039 L8.02129112,8.40222039 L8.02129112,6.00222039 C8.02129112,4.88879333 8.46358886,3.82096745 9.25090069,3.03365562 C10.0382125,2.24634379 11.1060384,1.80404605 12.2194655,1.80404605 M12.2194655,0.00592105263 C8.90757088,0.00592094838 6.22251686,2.69030124 6.22168586,6.00219572 L6.22168586,10.2003454 L18.218727,10.2003454 L18.218727,6.00515625 C18.2199039,4.4134204 17.5883139,2.88649609 16.4630641,1.76069096 C15.3378142,0.634885833 13.8112017,0.00254257546 12.2194655,0.00293567193 L12.2194655,0.00592105263 Z M12.2194655,18.8982977 C11.722927,18.8982977 11.320403,18.495749 11.320403,17.9992105 L11.320403,14.3999507 C11.320403,13.9034054 11.7229325,13.5008759 12.2194778,13.5008759 C12.7160231,13.5008759 13.1185526,13.9034054 13.1185526,14.3999507 L13.1185526,17.9992105 C13.1185526,18.4955921 12.7173026,18.8968174 12.2194655,18.8968174 L12.2194655,18.8982977 L12.2194655,18.8982977 Z" id="Shape"></path>
                    </g>
                </g>
            </g>
        </g>
    </g>
</svg>