<?xml version="1.0" standalone="no"?><!DOCTYPE svg PUBLIC "-//W3C//DTD SVG 1.1//EN" "http://www.w3.org/Graphics/SVG/1.1/DTD/svg11.dtd"><svg t="1627011407593" class="icon" viewBox="0 0 1024 1024" version="1.1" xmlns="http://www.w3.org/2000/svg" p-id="4595" xmlns:xlink="http://www.w3.org/1999/xlink" width="200" height="200"><defs><style type="text/css">@font-face { font-family: feedback-iconfont; src: url("//at.alicdn.com/t/font_1031158_1uhr8ri0pk5.eot?#iefix") format("embedded-opentype"), url("//at.alicdn.com/t/font_1031158_1uhr8ri0pk5.woff2") format("woff2"), url("//at.alicdn.com/t/font_1031158_1uhr8ri0pk5.woff") format("woff"), url("//at.alicdn.com/t/font_1031158_1uhr8ri0pk5.ttf") format("truetype"), url("//at.alicdn.com/t/font_1031158_1uhr8ri0pk5.svg#iconfont") format("svg"); }
</style></defs><path d="M485.713455 6.213818c64.314182 34.257455 239.982545 121.844364 359.127272 126.033455 22.795636 0.884364 41.466182 20.072727 42.123637 42.722909l0.017454 1.419636 0.005818 319.970909A289.693091 289.693091 0 0 0 756.363636 465.454545c-56.634182 0-109.492364 16.180364-154.193454 44.177455l90.269091-90.257455c14.382545-14.283636 14.382545-37.550545-0.098909-51.93309-13.922909-14.021818-36.485818-14.370909-50.938182-1.047273l-1.093818 1.047273-209.92 209.92-103.866182-103.854546c-14.283636-14.382545-37.649455-14.382545-52.032 0-14.021818 13.922909-14.370909 36.48-1.047273 50.932364l1.047273 1.093818 129.832727 130.030545a37.143273 37.143273 0 0 0 26.065455 10.688c9.018182 0 17.780364-3.188364 24.773818-9.640727l1.291636-1.250909 53.178182-53.184C481.629091 646.877091 465.454545 699.729455 465.454545 756.357818c0 93.637818 44.235636 176.942545 112.948364 230.149818a1582.114909 1582.114909 0 0 1-80.802909 30.08 112.133818 112.133818 0 0 1-73.204364 0c-129.274182-44.346182-192.517818-82.164364-212.695272-95.522909l-1.431273-0.954182c-4.061091-2.728727-5.969455-4.189091-5.986909-4.18909C39.761455 803.653818 35.031273 656.965818 34.914909 651.141818L34.909091 176.389818c0-23.266909 18.967273-43.339636 42.24-44.142545C196.392727 128.058182 371.962182 40.378182 436.276364 6.213818a52.247273 52.247273 0 0 1 49.437091 0zM756.363636 523.636364c128.529455 0 232.727273 104.197818 232.727273 232.727272s-104.197818 232.727273-232.727273 232.727273-232.727273-104.197818-232.727272-232.727273 104.197818-232.727273 232.727272-232.727272z m20.072728 91.927272h-31.127273c0 15.709091-0.581818 30.254545-1.745455 44.218182h-105.6v225.745455h30.545455v-196.363637h71.272727c-1.745455 9.890909-3.781818 19.490909-6.109091 28.218182-9.309091 30.836364-29.672727 57.018182-60.8 78.545455l20.363637 24.727272c30.254545-20.363636 51.490909-45.090909 63.709091-73.890909 24.145455 25.018182 43.636364 48.872727 58.181818 71.272728l23.563636-23.563637c-19.781818-25.6-43.927273-51.781818-72.436364-77.963636 2.036364-8.727273 3.781818-17.745455 5.236364-27.345455h72.727273v151.854546c0 8.145455-3.490909 12.218182-10.472727 12.218182l-43.927273-1.454546 8.145454 30.254546H843.636364c20.654545 0 31.127273-11.636364 31.127272-34.327273v-187.927273h-100.072727c1.163636-13.672727 1.745455-28.509091 1.745455-44.218182z" p-id="4596"></path></svg>