<?xml version="1.0" standalone="no"?><!DOCTYPE svg PUBLIC "-//W3C//DTD SVG 1.1//EN" "http://www.w3.org/Graphics/SVG/1.1/DTD/svg11.dtd"><svg t="1627011419800" class="icon" viewBox="0 0 1024 1024" version="1.1" xmlns="http://www.w3.org/2000/svg" p-id="4722" xmlns:xlink="http://www.w3.org/1999/xlink" width="200" height="200"><defs><style type="text/css">@font-face { font-family: feedback-iconfont; src: url("//at.alicdn.com/t/font_1031158_1uhr8ri0pk5.eot?#iefix") format("embedded-opentype"), url("//at.alicdn.com/t/font_1031158_1uhr8ri0pk5.woff2") format("woff2"), url("//at.alicdn.com/t/font_1031158_1uhr8ri0pk5.woff") format("woff"), url("//at.alicdn.com/t/font_1031158_1uhr8ri0pk5.ttf") format("truetype"), url("//at.alicdn.com/t/font_1031158_1uhr8ri0pk5.svg#iconfont") format("svg"); }
</style></defs><path d="M485.713455 6.213818c64.314182 34.257455 239.982545 121.844364 359.127272 126.033455 22.795636 0.884364 41.466182 20.072727 42.123637 42.722909l0.017454 1.419636 0.005818 319.970909A289.693091 289.693091 0 0 0 756.363636 465.454545c-56.634182 0-109.492364 16.180364-154.193454 44.177455l90.269091-90.257455c14.382545-14.283636 14.382545-37.550545-0.098909-51.93309-13.922909-14.021818-36.485818-14.370909-50.938182-1.047273l-1.093818 1.047273-209.92 209.92-103.866182-103.854546c-14.283636-14.382545-37.649455-14.382545-52.032 0-14.021818 13.922909-14.370909 36.48-1.047273 50.932364l1.047273 1.093818 129.832727 130.030545a37.143273 37.143273 0 0 0 26.065455 10.688c9.018182 0 17.780364-3.188364 24.773818-9.640727l1.291636-1.250909 53.178182-53.184C481.629091 646.877091 465.454545 699.729455 465.454545 756.357818c0 93.637818 44.235636 176.942545 112.948364 230.149818a1582.114909 1582.114909 0 0 1-80.802909 30.08 112.133818 112.133818 0 0 1-73.204364 0c-129.274182-44.346182-192.517818-82.164364-212.695272-95.522909l-1.431273-0.954182c-4.061091-2.728727-5.969455-4.189091-5.986909-4.18909C39.761455 803.653818 35.031273 656.965818 34.914909 651.141818L34.909091 176.389818c0-23.266909 18.967273-43.339636 42.24-44.142545C196.392727 128.058182 371.962182 40.378182 436.276364 6.213818a52.247273 52.247273 0 0 1 49.437091 0zM756.363636 523.636364c128.529455 0 232.727273 104.197818 232.727273 232.727272s-104.197818 232.727273-232.727273 232.727273-232.727273-104.197818-232.727272-232.727273 104.197818-232.727273 232.727272-232.727272z m65.745455 104.727272H791.272727v268.8h30.836364v-148.945454c14.545455 12.8 32 29.672727 52.363636 50.909091l18.909091-28.509091c-24.145455-20.945455-48-39.854545-71.272727-56.436364V628.363636z m-137.6-0.290909c-11.345455 50.909091-33.163636 91.345455-65.454546 121.309091l20.945455 26.181818c23.272727-21.236364 41.6-48 55.563636-80.290909h49.454546c-4.363636 26.472727-11.927273 50.909091-22.981818 73.018182-12.218182-9.890909-25.6-18.618182-39.854546-25.890909l-16 23.563636c13.963636 6.690909 27.927273 15.418182 41.890909 26.472728-20.072727 29.672727-47.418182 54.109091-81.745454 73.6l20.945454 25.890909c75.054545-44.8 117.527273-111.127273 127.418182-198.981818v-27.054546H706.327273c3.2-10.472727 6.109091-21.236364 8.727272-32.581818l-30.545454-5.236364z" p-id="4723"></path></svg>