<?xml version="1.0" standalone="no"?><!DOCTYPE svg PUBLIC "-//W3C//DTD SVG 1.1//EN" "http://www.w3.org/Graphics/SVG/1.1/DTD/svg11.dtd"><svg t="1639711380073" class="icon" viewBox="0 0 1024 1024" version="1.1" xmlns="http://www.w3.org/2000/svg" p-id="2231" xmlns:xlink="http://www.w3.org/1999/xlink" width="200" height="200"><defs><style type="text/css"></style></defs><path d="M512 0a512 512 0 1 1 0 1024A512 512 0 0 1 512 0z m0 64a448 448 0 1 0 0 896A448 448 0 0 0 512 64z" p-id="2232"></path><path d="M512 256a64 64 0 0 1 64 64v128h128a64 64 0 0 1 0 128H576v128a64 64 0 0 1-128 0V576H320a64 64 0 1 1 0-128h128V320a64 64 0 0 1 64-64z" p-id="2233"></path></svg>