<?xml version="1.0" standalone="no"?><!DOCTYPE svg PUBLIC "-//W3C//DTD SVG 1.1//EN" "http://www.w3.org/Graphics/SVG/1.1/DTD/svg11.dtd"><svg t="1658126794277" class="icon" viewBox="0 0 1740 1024" version="1.1" xmlns="http://www.w3.org/2000/svg" p-id="7788" xmlns:xlink="http://www.w3.org/1999/xlink" width="339.84375" height="200"><defs><style type="text/css">@font-face { font-family: feedback-iconfont; src: url("//at.alicdn.com/t/font_1031158_u69w8yhxdu.woff2?t=1630033759944") format("woff2"), url("//at.alicdn.com/t/font_1031158_u69w8yhxdu.woff?t=1630033759944") format("woff"), url("//at.alicdn.com/t/font_1031158_u69w8yhxdu.ttf?t=1630033759944") format("truetype"); }
</style></defs><path d="M1703.23434898 956.44555938a92.32443987 92.32443987 0 0 1-130.97187982 1.07354L870.91878816 256.49748037 172.58101915 956.55291337a94.25681187 94.25681187 0 0 1-132.04541983 1.07353999 92.32443987 92.32443987 0 0 1-0.96618599-130.9718798L797.16659026 67.12502463a93.82739587 93.82739587 0 0 1 74.0742599-27.16056196c26.62379196-2.14708001 52.92552192 7.51477999 71.92717989 26.40908397l759.10013292 758.02659292c14.81485197 14.38543598 24.47671196 33.27973996 27.26791597 53.67699991l0.858832 12.453064a95.54505986 95.54505986 0 0 1-27.16056196 65.8080019z" p-id="7789"></path></svg>