<?xml version="1.0" standalone="no"?><!DOCTYPE svg PUBLIC "-//W3C//DTD SVG 1.1//EN" "http://www.w3.org/Graphics/SVG/1.1/DTD/svg11.dtd"><svg t="1640679534392" class="icon" viewBox="0 0 1024 1024" version="1.1" xmlns="http://www.w3.org/2000/svg" p-id="1800" xmlns:xlink="http://www.w3.org/1999/xlink" width="200" height="200"><defs><style type="text/css"></style></defs><path d="M589.165714 509.147429l414.72-414.72a54.272 54.272 0 0 0 0-76.361143l-2.340571-2.194286a54.272 54.272 0 0 0-76.361143 0L510.537143 431.030857 95.817143 15.798857a54.272 54.272 0 0 0-76.288 0L17.188571 18.066286a53.248 53.248 0 0 0 0 76.361143l414.72 414.72-414.72 414.72a54.272 54.272 0 0 0 0 76.361142l2.194286 2.194286a54.272 54.272 0 0 0 76.434286 0l414.72-414.646857 414.72 414.72a54.272 54.272 0 0 0 76.288 0l2.267428-2.267429a54.272 54.272 0 0 0 0-76.361142l-414.72-414.72z" p-id="1801"></path></svg>