<?xml version="1.0" standalone="no"?><!DOCTYPE svg PUBLIC "-//W3C//DTD SVG 1.1//EN" "http://www.w3.org/Graphics/SVG/1.1/DTD/svg11.dtd"><svg t="1640773334354" class="icon" viewBox="0 0 1024 1024" version="1.1" xmlns="http://www.w3.org/2000/svg" p-id="2173" xmlns:xlink="http://www.w3.org/1999/xlink" width="200" height="200"><defs><style type="text/css"></style></defs><path d="M677.184 0a102.4 102.4 0 0 1 102.4 102.4v34.112h107.904a102.4 102.4 0 0 1 102.4 102.4A102.4 102.4 0 0 1 921.6 335.168v552.32A136.512 136.512 0 0 1 785.088 1024H238.912A136.512 136.512 0 0 1 102.4 887.488v-552.32a102.4 102.4 0 0 1 34.112-198.656h96.96V102.4a102.4 102.4 0 0 1 102.4-102.4z m176.128 341.312H170.688v546.176c0 37.696 30.528 68.224 68.224 68.224h546.176c37.696 0 68.224-30.528 68.224-68.224V341.312z m-512 119.488c18.88 0 34.176 15.296 34.176 34.112v307.2a34.112 34.112 0 1 1-68.288 0v-307.2c0-18.816 15.296-34.112 34.112-34.112zM512 460.8c18.88 0 34.112 15.296 34.112 34.112v307.2a34.112 34.112 0 0 1-68.224 0v-307.2c0-18.816 15.232-34.112 34.112-34.112z m170.688 0c18.816 0 34.112 15.296 34.112 34.112v307.2a34.112 34.112 0 0 1-68.288 0v-307.2c0-18.816 15.36-34.112 34.176-34.112z m204.8-256H136.512a34.112 34.112 0 0 0 0 68.288h750.976a34.112 34.112 0 0 0 0-68.288zM677.12 68.288H335.872a34.112 34.112 0 0 0-34.112 34.112v34.112h409.6V102.4a34.112 34.112 0 0 0-34.176-34.112z" p-id="2174"></path></svg>