<?xml version="1.0" standalone="no"?><!DOCTYPE svg PUBLIC "-//W3C//DTD SVG 1.1//EN" "http://www.w3.org/Graphics/SVG/1.1/DTD/svg11.dtd"><svg t="1710383443674" class="icon" viewBox="0 0 1024 1024" version="1.1" xmlns="http://www.w3.org/2000/svg" p-id="12784" xmlns:xlink="http://www.w3.org/1999/xlink" width="48" height="48"><path d="M879.416787 1024H144.583213c-32.711102-0.028444-59.221317-26.055104-59.249761-58.168873V58.169157C85.361896 26.055388 111.872111 0.028729 144.583213 0.000284h518.627412a59.448872 59.448872 0 0 1 41.898655 17.066662l216.177717 212.252386c11.178664 10.894219 17.43644 25.713771 17.379551 41.130655v695.38114c-0.028444 32.113769-26.538659 58.140428-59.249761 58.168873zM144.583213 46.535383a11.747552 11.747552 0 0 0-11.832885 11.662219v907.633525c0 6.399998 5.290665 11.633775 11.832885 11.633775h734.833574c6.54222 0 11.832886-5.233776 11.832885-11.662219V279.296207h-177.777728c-32.711102-0.028444-59.221317-26.055104-59.249761-58.168873V46.535383H144.583213z m557.055845 32.910213v141.653294c0 6.428443 5.290665 11.633775 11.832886 11.633774h144.270182l-156.103068-153.287068z m23.694216 711.822024h-426.666548A23.495105 23.495105 0 0 1 274.97251 768.000071c0-12.856885 10.609775-23.267549 23.694216-23.267549h426.666548c13.084441 0 23.694216 10.410664 23.694216 23.267549a23.495105 23.495105 0 0 1-23.694216 23.267549z m0-232.73238h-426.666548a23.495105 23.495105 0 0 1-23.694216-23.267549c0-12.856885 10.609775-23.267549 23.694216-23.267549h426.666548c13.084441 0 23.694216 10.410664 23.694216 23.267549a23.495105 23.495105 0 0 1-23.694216 23.267549z m-237.02749-279.267478H298.666726A23.495105 23.495105 0 0 1 274.97251 256.000213c0-12.856885 10.609775-23.267549 23.694216-23.267549h189.639058c13.084441 0 23.694216 10.410664 23.694216 23.267549a23.495105 23.495105 0 0 1-23.694216 23.267549z" p-id="12785"></path></svg>