<?xml version="1.0" standalone="no"?><!DOCTYPE svg PUBLIC "-//W3C//DTD SVG 1.1//EN" "http://www.w3.org/Graphics/SVG/1.1/DTD/svg11.dtd"><svg t="1660038387498" class="icon" viewBox="0 0 1024 1024" version="1.1" xmlns="http://www.w3.org/2000/svg" p-id="14392" xmlns:xlink="http://www.w3.org/1999/xlink" width="200" height="200"><defs><style type="text/css">@font-face { font-family: feedback-iconfont; src: url("//at.alicdn.com/t/font_1031158_u69w8yhxdu.woff2?t=1630033759944") format("woff2"), url("//at.alicdn.com/t/font_1031158_u69w8yhxdu.woff?t=1630033759944") format("woff"), url("//at.alicdn.com/t/font_1031158_u69w8yhxdu.ttf?t=1630033759944") format("truetype"); }
</style></defs><path d="M499.584 2.112A64 64 0 0 1 576 64.896v20.096h416a32 32 0 0 1 32 32v768a32 32 0 0 1-32 32H576v18.432a64 64 0 0 1-76.16 62.72l-448-87.04a64 64 0 0 1-51.84-62.784V153.6a64 64 0 0 1 51.584-62.784z m452.416 146.88H576v88c0 4.416 3.584 8 8 8h96c4.416 0 8 3.584 8 8v48a8 8 0 0 1-8 8h-96A8 8 0 0 0 576 316.992v32c0 4.416 3.584 8 8 8h96c4.416 0 8 3.584 8 8v48a8 8 0 0 1-8 8h-96A8 8 0 0 0 576 428.992v32c0 4.416 3.584 8 8 8h96c4.416 0 8 3.584 8 8v48a8 8 0 0 1-8 8h-96A8 8 0 0 0 576 540.992v32c0 4.416 3.584 8 8 8h96c4.416 0 8 3.584 8 8v48a8 8 0 0 1-8 8h-96a8 8 0 0 0-8 8v32c0 4.416 3.584 8 8 8h96c4.416 0 8 3.584 8 8v48a8 8 0 0 1-8 8h-96a8 8 0 0 0-8 8v88h376a8 8 0 0 0 8-8V156.992a8 8 0 0 0-8-8z m-64 544c4.416 0 8 3.584 8 8v48a8 8 0 0 1-8 8h-128a8 8 0 0 1-8-8v-48c0-4.416 3.584-8 8-8zM403.136 295.872h-2.752l-67.072 11.84a16 16 0 0 0-11.84 9.088L269.44 430.016c-4.16 11.264-7.68 21.888-10.496 31.872h-0.768a201.472 201.472 0 0 0-9.6-29.312l-38.912-90.56a16.064 16.064 0 0 0-17.472-9.408l-45.248 7.872a8.064 8.064 0 0 0-5.76 11.392L210.56 494.912a16.128 16.128 0 0 1-0.32 14.464l-75.392 142.08a8.32 8.32 0 0 0 5.568 11.968l43.008 7.488c7.104 1.28 14.08-2.304 17.216-8.832l47.296-98.368c3.712-10.432 6.08-18.304 7.168-23.936H256c2.176 11.52 4.288 19.52 6.272 24l56.512 123.712a16 16 0 0 0 11.84 9.088l72.704 12.8a8.064 8.064 0 0 0 8.32-11.776L306.944 508.608a16.384 16.384 0 0 1 0-15.488l101.952-185.536a8 8 0 0 0-8.448-11.712z m484.864 285.12c4.416 0 8 3.584 8 8v48a8 8 0 0 1-8 8h-128a8 8 0 0 1-8-8v-48c0-4.416 3.584-8 8-8z m0-112c4.416 0 8 3.584 8 8v48a8 8 0 0 1-8 8h-128a8 8 0 0 1-8-8v-48c0-4.416 3.584-8 8-8z m0-112c4.416 0 8 3.584 8 8v48a8 8 0 0 1-8 8h-128a8 8 0 0 1-8-8v-48c0-4.416 3.584-8 8-8z m0-112c4.416 0 8 3.584 8 8v48a8 8 0 0 1-8 8h-128a8 8 0 0 1-8-8v-48c0-4.416 3.584-8 8-8z" p-id="14393"></path></svg>