<?xml version="1.0" standalone="no"?><!DOCTYPE svg PUBLIC "-//W3C//DTD SVG 1.1//EN" "http://www.w3.org/Graphics/SVG/1.1/DTD/svg11.dtd"><svg t="1649924170503" class="icon" viewBox="0 0 1024 1024" version="1.1" xmlns="http://www.w3.org/2000/svg" p-id="13396" xmlns:xlink="http://www.w3.org/1999/xlink" width="200" height="200"><defs><style type="text/css">@font-face { font-family: feedback-iconfont; src: url("//at.alicdn.com/t/font_1031158_u69w8yhxdu.woff2?t=1630033759944") format("woff2"), url("//at.alicdn.com/t/font_1031158_u69w8yhxdu.woff?t=1630033759944") format("woff"), url("//at.alicdn.com/t/font_1031158_u69w8yhxdu.ttf?t=1630033759944") format("truetype"); }
</style></defs><path d="M923.776 421.952C923.776 188.928 738.56 0 510.08 0 281.6 0 96.384 188.928 96.384 421.952c0 7.36 0.64 14.528 1.088 21.76-0.384 3.584-1.088 7.04-1.088 10.688 0 259.712 381.888 553.856 381.888 553.856s31.808 24.32 63.616 0 381.888-294.144 381.888-553.856c0-3.648-0.768-7.04-1.088-10.688 0.384-7.232 1.088-14.4 1.088-21.76zM510.08 584.256c-87.872 0-159.104-72.64-159.104-162.304 0-89.6 71.232-162.24 159.104-162.24 87.872 0 159.104 72.64 159.104 162.24 0 89.6-71.232 162.304-159.104 162.304z" p-id="13397"></path></svg>