<?xml version="1.0" standalone="no"?><!DOCTYPE svg PUBLIC "-//W3C//DTD SVG 1.1//EN" "http://www.w3.org/Graphics/SVG/1.1/DTD/svg11.dtd"><svg t="1652754268293" class="icon" viewBox="0 0 1024 1024" version="1.1" xmlns="http://www.w3.org/2000/svg" p-id="7102" xmlns:xlink="http://www.w3.org/1999/xlink" width="200" height="200"><defs><style type="text/css">@font-face { font-family: feedback-iconfont; src: url("//at.alicdn.com/t/font_1031158_u69w8yhxdu.woff2?t=1630033759944") format("woff2"), url("//at.alicdn.com/t/font_1031158_u69w8yhxdu.woff?t=1630033759944") format("woff"), url("//at.alicdn.com/t/font_1031158_u69w8yhxdu.ttf?t=1630033759944") format("truetype"); }
</style></defs><path d="M424.96 1018.944c-8.64 0-17.088-4.224-21.184-4.224a50.56 50.56 0 0 1-21.12-38.144V607.36L9.344 68.48C0.896 55.68-3.328 38.72 5.12 21.76A44.352 44.352 0 0 1 43.328 0.512h932.8a44.608 44.608 0 0 1 38.144 21.12c8.448 12.672 4.224 29.76-4.224 42.432l-373.12 543.168v284.352c0 17.024-8.576 29.696-25.472 38.208l-169.6 84.8c-4.224 4.288-8.512 4.288-16.96 4.288z" p-id="7103"></path></svg>