<?xml version="1.0" standalone="no"?><!DOCTYPE svg PUBLIC "-//W3C//DTD SVG 1.1//EN" "http://www.w3.org/Graphics/SVG/1.1/DTD/svg11.dtd"><svg t="1696817225511" class="icon" viewBox="0 0 1024 1024" version="1.1" xmlns="http://www.w3.org/2000/svg" p-id="15624" xmlns:xlink="http://www.w3.org/1999/xlink" width="200" height="200"><path d="M919.296 104.704a64 64 0 0 1 0 90.496l-65.152 65.28c118.08 104.64 169.536 233.152 169.536 233.152s-146.24 365.568-511.872 365.568a497.28 497.28 0 0 1-210.88-45.568L195.2 919.296a64 64 0 0 1-90.496-90.496l84.864-84.928C57.216 636.736 0 493.632 0 493.632S146.24 128 511.808 128a496 496 0 0 1 235.712 57.92l81.28-81.216a64 64 0 0 1 90.496 0zM711.68 402.816l-90.24 90.24v0.576c0 60.544-49.152 109.632-109.632 109.632h-0.576l-90.048 90.048a218.24 218.24 0 0 0 78.592 19.2l12.032 0.384a219.52 219.52 0 0 0 199.872-310.08zM511.808 274.112a219.392 219.392 0 0 0-186.88 334.336L407.04 526.336a109.696 109.696 0 0 1 137.472-137.408L626.816 306.56a218.368 218.368 0 0 0-115.008-32.512z" p-id="15625"></path></svg>