<?xml version="1.0" standalone="no"?><!DOCTYPE svg PUBLIC "-//W3C//DTD SVG 1.1//EN" "http://www.w3.org/Graphics/SVG/1.1/DTD/svg11.dtd"><svg t="1678850530392" class="icon" viewBox="0 0 1024 1024" version="1.1" xmlns="http://www.w3.org/2000/svg" p-id="12303" xmlns:xlink="http://www.w3.org/1999/xlink" width="200" height="200"><path d="M869.42139284 154.57860716C773.90701398 59.06422833 647.03757009 6.49838394 512 6.49838394s-261.90701398 52.56584436-357.42139284 148.08022322S6.49838394 376.96242991 6.49838394 512s52.56584436 261.90701398 148.08022322 357.42139284S376.96242991 1017.50161606 512 1017.50161606s261.90701398-52.56584436 357.42139284-148.08022322S1017.50161606 647.03757009 1017.50161606 512s-52.56584436-261.90701398-148.08022322-357.42139284z m-87.74148456 311.83797896l-101.17936959 98.67623413L704.3461974 704.3461974c3.03011134 17.91718005-4.0840631 35.57087213-18.83938782 46.24213376-8.29987016 6.06022264-18.04892402 9.09033399-27.79797786 9.090334-7.50940633 0-15.01881268-1.84441559-22.00124312-5.53324681l-125.15677227-65.74024142-125.15677228 65.74024142c-16.07276442 8.43161413-35.17564023 7.11417445-49.79922098-3.55708719-14.62358076-10.67126163-21.86949914-28.45669768-18.8393878-46.24213376L340.73283793 564.96107626l-101.17936957-98.67623412c-13.04265311-12.6474212-17.65369209-31.22332109-11.98870135-48.48178127 5.66499073-17.25846019 20.28857151-29.64239343 38.20575152-32.14552886l139.78035306-20.28857152 62.57838611-126.73769993c8.03638221-16.33625239 24.24089065-26.34879418 42.42155863-26.34879415 18.18066796 0 34.38517638 10.14428575 42.42155859 26.34879415l62.57838614 126.73769993 139.78035304 20.28857152c17.91718005 2.63487944 32.67250476 14.88706873 38.20575155 32.27727284 5.79673471 17.1267162 1.18569577 35.70261608-11.85695737 48.48178127z" p-id="12304"></path></svg>