<?xml version="1.0" standalone="no"?><!DOCTYPE svg PUBLIC "-//W3C//DTD SVG 1.1//EN" "http://www.w3.org/Graphics/SVG/1.1/DTD/svg11.dtd"><svg t="1658128211393" class="icon" viewBox="0 0 1024 1024" version="1.1" xmlns="http://www.w3.org/2000/svg" p-id="7819" xmlns:xlink="http://www.w3.org/1999/xlink" width="200" height="200"><defs><style type="text/css">@font-face { font-family: feedback-iconfont; src: url("//at.alicdn.com/t/font_1031158_u69w8yhxdu.woff2?t=1630033759944") format("woff2"), url("//at.alicdn.com/t/font_1031158_u69w8yhxdu.woff?t=1630033759944") format("woff"), url("//at.alicdn.com/t/font_1031158_u69w8yhxdu.ttf?t=1630033759944") format("truetype"); }
</style></defs><path d="M512 0c25.728 0 46.528 20.864 46.528 46.528V186.24a46.528 46.528 0 0 1-93.056 0V46.528C465.472 20.864 486.272 0 512 0z m443.392 256c12.864 22.272 5.248 50.752-17.024 63.552l-120.96 69.824a46.528 46.528 0 0 1-46.528-80.64l120.96-69.76a46.528 46.528 0 0 1 63.552 17.024zM768 68.608c22.272 12.8 29.888 41.28 17.024 63.552l-69.76 120.96a46.528 46.528 0 1 1-80.64-46.528l69.76-120.96A46.528 46.528 0 0 1 768 68.608zM1024 512a46.528 46.528 0 0 1-46.528 46.528H837.76a46.528 46.528 0 1 1 0-93.056h139.648c25.664 0 46.528 20.8 46.528 46.528z m-308.8 258.88l69.824 120.96a46.528 46.528 0 0 1-80.64 46.528l-69.76-120.96a46.528 46.528 0 0 1 80.64-46.528z m102.208-136.32l120.96 69.888a46.528 46.528 0 0 1-46.528 80.64l-120.96-69.888a46.528 46.528 0 1 1 46.528-80.64zM512 1024a46.528 46.528 0 0 1-46.528-46.528V837.76a46.528 46.528 0 0 1 93.056 0v139.648A46.528 46.528 0 0 1 512 1024z m-162.88-276.672a46.528 46.528 0 0 1 40.32 70.08l-69.888 120.96a46.528 46.528 0 0 1-80.64-46.528l69.888-120.96a46.528 46.528 0 0 1 40.32-23.552z m-79.232-95.552c12.8 22.144 5.312 50.56-16.768 63.424l-120.96 69.824a46.528 46.528 0 0 1-46.528-80.64l120.96-69.76a46.528 46.528 0 0 1 63.296 17.152zM0 512c0-25.728 20.864-46.528 46.528-46.528H186.24a46.528 46.528 0 1 1 0 93.056H46.528A46.528 46.528 0 0 1 0 512z m132.16-273.024l120.96 69.76a46.528 46.528 0 1 1-46.528 80.64l-120.96-69.76a46.528 46.528 0 0 1 46.528-80.64z m187.392-153.344l69.824 120.96a46.528 46.528 0 0 1-80.64 46.528l-69.76-120.96a46.528 46.528 0 0 1 80.64-46.528z" p-id="7820"></path></svg>