<?xml version="1.0" standalone="no"?><!DOCTYPE svg PUBLIC "-//W3C//DTD SVG 1.1//EN" "http://www.w3.org/Graphics/SVG/1.1/DTD/svg11.dtd"><svg t="1645405940535" class="icon" viewBox="0 0 1024 1024" version="1.1" xmlns="http://www.w3.org/2000/svg" p-id="3961" xmlns:xlink="http://www.w3.org/1999/xlink" width="200" height="200"><defs><style type="text/css"></style></defs><path d="M546.154653 1009.289194c3.325921-3.389881 7.227483-7.355403 11.512805-11.896564a2103.005621 2103.005621 0 0 0 164.057464-194.758276c55.773142-75.216989 101.4406-148.643098 133.356652-218.423486 32.491693-70.931668 50.0807-136.298813 50.0807-195.461836a388.109432 388.109432 0 0 0-776.282824 0c0 65.495066 24.43273 141.479575 68.948907 226.546408 30.125172 57.564022 68.884947 118.198126 114.232605 180.495191a2375.475328 2375.475328 0 0 0 179.40787 217.208245c13.687445 14.327046 36.457214 14.582886 50.46446 0.6396l4.221361-4.349282z m-3.645721-45.027857a600.648595 600.648595 0 0 1-14.646846-15.798127 2305.758901 2305.758901 0 0 1-158.812742-194.246595c-43.364897-59.610743-80.333791-117.430606-108.732042-171.668707-39.655215-75.85659-60.889944-141.799375-60.889944-193.798876a317.561524 317.561524 0 1 1 635.123048 0c0 47.650219-15.030606 103.61524-43.620737 166.040225-29.677452 64.791505-72.786508 134.252092-125.873329 205.82336a2033.289194 2033.289194 0 0 1-173.011868 203.009119l50.52842 0.639601z m133.292692-575.512305a158.812742 158.812742 0 1 0-317.561524 0 158.812742 158.812742 0 0 0 317.561524 0z m-247.013617 0a88.264834 88.264834 0 1 1 176.401749 0 88.264834 88.264834 0 0 1-176.401749 0z" p-id="3962"></path></svg>