<?xml version="1.0" standalone="no"?><!DOCTYPE svg PUBLIC "-//W3C//DTD SVG 1.1//EN" "http://www.w3.org/Graphics/SVG/1.1/DTD/svg11.dtd"><svg t="1642401297887" class="icon" viewBox="0 0 1024 1024" version="1.1" xmlns="http://www.w3.org/2000/svg" p-id="2512" xmlns:xlink="http://www.w3.org/1999/xlink" width="200" height="200"><defs><style type="text/css"></style></defs><path d="M967.136 455.584H567.264V55.712c0-30.88-24.576-55.488-55.488-55.488-30.88 0-55.488 24.608-55.488 55.488v399.872H56.416c-30.88 0-55.488 24.608-55.488 55.488 0 30.912 24.608 55.488 55.488 55.488H456.32V967.04c0 30.912 24.608 55.488 55.488 55.488 30.912 0 55.488-24.576 55.488-55.488V566.56h399.872c30.912 0 55.52-24.576 55.52-55.488 0-30.88-24.64-55.488-55.52-55.488z" p-id="2513"></path></svg>