<?xml version="1.0" standalone="no"?><!DOCTYPE svg PUBLIC "-//W3C//DTD SVG 1.1//EN" "http://www.w3.org/Graphics/SVG/1.1/DTD/svg11.dtd"><svg class="icon" width="200px" height="200.00px" viewBox="0 0 1024 1024" version="1.1" xmlns="http://www.w3.org/2000/svg"><path d="M895.701333 391.424h-172.629333a39.850667 39.850667 0 1 1 0-79.701333h69.333333a344.490667 344.490667 0 0 0-281.813333-146.048 345.258667 345.258667 0 1 0 345.301333 345.258666 39.850667 39.850667 0 1 1 79.658667 0c0 234.666667-190.293333 424.96-424.96 424.96-234.666667 0-424.96-190.293333-424.96-424.96 0-234.666667 190.293333-424.96 424.96-424.96a423.765333 423.765333 0 0 1 345.301333 177.834667V192.213333a39.850667 39.850667 0 1 1 79.658667 0V351.573333a39.850667 39.850667 0 0 1-39.850667 39.850667z"  /></svg>