<?xml version="1.0" standalone="no"?><!DOCTYPE svg PUBLIC "-//W3C//DTD SVG 1.1//EN" "http://www.w3.org/Graphics/SVG/1.1/DTD/svg11.dtd"><svg t="1662433234784" class="icon" viewBox="0 0 1024 1024" version="1.1" xmlns="http://www.w3.org/2000/svg" p-id="9079" xmlns:xlink="http://www.w3.org/1999/xlink" width="200" height="200"><path d="M226.031855 346.37983v112.924505H113.107349v451.844297h791.129777V459.304335h-112.997643V346.37983h112.997643c62.386401 0 112.924505 50.538104 112.997643 112.924505v451.844297c0 62.313263-50.538104 112.851368-112.997643 112.851368H113.034212A112.997643 112.997643 0 0 1 0.036569 911.075495V459.304335a112.924505 112.924505 0 0 1 112.997643-112.924505h113.070781z m282.603814 426.904364c37.812156 0 56.53539-18.796372 56.53539-56.389115V265.12392h117.020213a45.345332 45.345332 0 0 0 38.543533-21.795015l3.07178-5.997286a45.199057 45.199057 0 0 0-9.361617-49.075352L540.377402 14.408114a44.613956 44.613956 0 0 0-65.53132 0l-169.679308 173.848153a45.199057 45.199057 0 0 0 29.986429 76.794515h116.947076v451.844297c0 34.740376 16.090279 53.390472 48.1977 56.096564l8.33769 0.292551z" p-id="9080"></path></svg>