<?xml version="1.0" standalone="no"?><!DOCTYPE svg PUBLIC "-//W3C//DTD SVG 1.1//EN" "http://www.w3.org/Graphics/SVG/1.1/DTD/svg11.dtd"><svg t="1642557361831" class="icon" viewBox="0 0 1024 1024" version="1.1" xmlns="http://www.w3.org/2000/svg" p-id="2666" xmlns:xlink="http://www.w3.org/1999/xlink" width="200" height="200"><defs><style type="text/css"></style></defs><path d="M985.6 365.824l-66.56-9.344a42.048 42.048 0 0 1-32.512-25.664 407.36 407.36 0 0 0-49.92-86.656 41.92 41.92 0 0 1-6.016-40.96l25.216-62.272a41.152 41.152 0 0 0-17.664-51.264L694.272 6.4a41.216 41.216 0 0 0-53.248 10.368l-41.152 52.672a42.24 42.24 0 0 1-38.912 15.488 390.272 390.272 0 0 0-99.584 0 42.24 42.24 0 0 1-38.912-15.488L381.248 16.832a41.216 41.216 0 0 0-53.248-10.304L184.192 89.536a41.344 41.344 0 0 0-17.664 51.264l25.216 62.208a41.856 41.856 0 0 1-6.016 41.088 402.432 402.432 0 0 0-49.92 86.592 41.6 41.6 0 0 1-32.576 25.728l-66.496 9.28a41.472 41.472 0 0 0-35.712 41.024v166.208c0 20.544 15.232 38.016 35.584 40.96l66.56 9.28c14.72 2.048 26.688 12.096 32.512 25.664 13.184 31.04 29.888 60.16 49.92 86.656 8.96 11.84 11.584 27.328 6.016 41.024l-25.216 62.208a41.152 41.152 0 0 0 17.664 51.264l143.872 83.008c17.92 10.368 40.576 5.952 53.248-10.304l41.152-52.672a42.24 42.24 0 0 1 38.912-15.488 390.272 390.272 0 0 0 99.584 0 42.24 42.24 0 0 1 38.912 15.488l41.216 52.672a41.216 41.216 0 0 0 53.248 10.304l143.808-83.008a41.344 41.344 0 0 0 17.664-51.264l-25.216-62.208a41.92 41.92 0 0 1 6.016-41.024c20.032-26.56 36.864-55.616 49.92-86.656a41.6 41.6 0 0 1 32.576-25.664l66.496-9.344a41.344 41.344 0 0 0 35.584-40.96V406.784a40.832 40.832 0 0 0-35.456-40.96z m-474.432 285.44a161.536 161.536 0 1 1 0-323.072 161.536 161.536 0 0 1 0 323.072z" p-id="2667"></path></svg>